<?xml version="1.0" encoding="utf-8"?>
<!-- Generator: Adobe Illustrator 21.1.0, SVG Export Plug-In . SVG Version: 6.00 Build 0)  -->
<svg version="1.1" id="Layer_1" xmlns="http://www.w3.org/2000/svg" xmlns:xlink="http://www.w3.org/1999/xlink" x="0px" y="0px"
	 viewBox="0 0 115.5 37.5" style="enable-background:new 0 0 115.5 37.5;" xml:space="preserve">
<style type="text/css">
	.st0{fill:#FFFFFF;}
</style>
<g id="Logo_TM__x28_CMYK_x29_">
	<path class="st0" d="M11.8,11c3,0,5.5-2.5,5.5-5.5c0-3-2.5-5.5-5.5-5.5c-3,0-5.5,2.5-5.5,5.5C6.3,8.5,8.8,11,11.8,11"/>
	<path class="st0" d="M11.8,13.6C5.3,13.6,0,18.8,0,25.3v11.9h6.5V25.3c0-2.9,2.4-5.3,5.3-5.3s5.3,2.4,5.3,5.3v11.9h6.5V25.3
		C23.5,18.8,18.3,13.6,11.8,13.6"/>
	<path class="st0" d="M68.4,13.6c-6.5,0-11.8,5.3-11.8,11.8v11.9h6.5V25.3c0-2.9,2.4-5.3,5.3-5.3c2.9,0,5.3,2.4,5.3,5.3v11.9h6.5
		V25.3C80.1,18.8,74.9,13.6,68.4,13.6"/>
	<path class="st0" d="M96,13.6c-6.6,0-12,5.4-12,12c0,6.6,5.4,12,12,12c6.6,0,12-5.4,12-12C108,18.9,102.6,13.6,96,13.6 M96,31
		c-3,0-5.5-2.5-5.5-5.5c0-3,2.5-5.5,5.5-5.5c3,0,5.5,2.5,5.5,5.5C101.5,28.6,99,31,96,31"/>
	<path class="st0" d="M44.9,16.6c-1.5-1.9-3.9-3.1-6.5-3.1c-6.1,0-11,5.4-11,12c0,6.6,4.9,12,11,12c2.6,0,4.9-1.2,6.5-3.1v2.7h6.5
		V13.9h-6.5V16.6z M33.9,25.5c0-3,2.5-5.5,5.5-5.5c3,0,5.5,2.5,5.5,5.5v0c0,3-2.5,5.5-5.5,5.5C36.4,31,33.9,28.6,33.9,25.5"/>
	<polygon class="st0" points="108,10.1 108,9.4 111.1,9.4 111.1,10.1 109.9,10.1 109.9,13.6 109.1,13.6 109.1,10.1 	"/>
	<polygon class="st0" points="111.8,13.6 111.8,9.4 112.7,9.4 113.7,12 114.7,9.4 115.5,9.4 115.5,13.6 114.7,13.6 114.7,11 
		113.9,13.2 113.4,13.2 112.6,11 112.6,13.6 	"/>
</g>
</svg>
